<svg xmlns="http://www.w3.org/2000/svg" viewBox="0 0 192 192">
  <defs>
    <linearGradient id="a" x1="-108.63" y1="-692.24" x2="-58.56" y2="-742.31" gradientTransform="matrix(2.67 0 0 -2.67 317.23 -1808)" gradientUnits="userSpaceOnUse">
      <stop offset="0" stop-color="#fff" stop-opacity=".1"/>
      <stop offset="1" stop-color="#fff" stop-opacity="0"/>
    </linearGradient>
  </defs>
  <path fill="#ffa000" d="m32 69.33 9.08-58.18a4 4 0 0 1 7.76-.44l9.5 17.79L32 69.33z"/>
  <path fill="#f57f17" d="M149.33 64 129.86 28a4 4 0 0 0-7-1.06L32 69.33l48.92 92.50a8 8 0 0 0 14.16 0l54.25-97.83z"/>
  <path fill="#ffca28" d="m120 36.01-16.51-30.94A4 4 0 0 0 96 4.83v-.39a4 4 0 0 0-6.77-2.87L32 69.33l48.92 92.5a8 8 0 0 0 14.16 0L120 36.01z"/>
  <path fill="url(#a)" d="m32 69.33 9.08-58.18a4 4 0 0 1 7.76-.44l9.5 17.79 17.13-32.27a4 4 0 0 1 7 1.27l16.8 31.5 20.08 34.71-54.27 97.82a8 8 0 0 1-14.16 0L32 69.33z"/>
</svg>
