<svg xmlns="http://www.w3.org/2000/svg" viewBox="0 0 442.4 270.9">
  <defs>
    <linearGradient id="a" x1="180.7" y1="80.7" x2="142.6" y2="158.4" gradientUnits="userSpaceOnUse">
      <stop offset="0" stop-color="#3f873f"/>
      <stop offset=".3" stop-color="#3f8b3d"/>
      <stop offset=".6" stop-color="#3e9637"/>
      <stop offset=".9" stop-color="#3da92e"/>
      <stop offset="1" stop-color="#3dae2b"/>
    </linearGradient>
    <linearGradient id="b" x1="157.2" y1="121.3" x2="264" y2="42.4" gradientUnits="userSpaceOnUse">
      <stop offset=".1" stop-color="#3f873f"/>
      <stop offset=".4" stop-color="#52a044"/>
      <stop offset=".7" stop-color="#64b749"/>
      <stop offset=".9" stop-color="#6abf4b"/>
    </linearGradient>
    <linearGradient id="c" x1="114.3" y1="53.8" x2="212" y2="53.8" gradientUnits="userSpaceOnUse">
      <stop offset=".1" stop-color="#3f873f"/>
      <stop offset=".4" stop-color="#52a044"/>
      <stop offset=".7" stop-color="#64b749"/>
      <stop offset=".9" stop-color="#6abf4b"/>
    </linearGradient>
  </defs>
  <path fill="#6cc24a" d="M218.7 270.9a13 13 0 01-6.4-1.7l-20.4-12.1c-3-1.7-1.6-2.3-.5-2.6 4.1-1.4 5-1.7 9.4-4.3.5-.3 1-.2 1.4.1l15.7 9.3c.5.3 1.3.3 1.8 0l61-35.2c.5-.3.9-1 .9-1.6V152.6c0-.7-.4-1.3-1-1.6l-61-35.1a1.7 1.7 0 00-1.8 0l-60.9 35.1a1.8 1.8 0 00-1 1.6v70.2c0 .7.4 1.3.9 1.6l16.7 9.6c9.2 4.6 14.9-.8 14.9-6.3V158.8c0-1 .8-1.8 1.8-1.8h7.7c1 0 1.8.8 1.8 1.8v69.3c0 12.3-6.7 19.5-18.4 19.5-3.6 0-6.4 0-14.3-3.9l-16-9.2a13 13 0 01-6.4-11.3v-70.2c0-4.7 2.5-9 6.5-11.3l61-35.2c3.8-2.1 8.9-2.1 12.7 0l61 35.2c4 2.3 6.5 6.6 6.5 11.3v70.2c0 4.6-2.5 9-6.5 11.3l-61 35.2a13 13 0 01-6.3 1.7"/>
  <path fill="#6cc24a" d="M231 220.2c-26.7 0-32.3-12.3-32.3-22.5 0-1 .8-1.8 1.8-1.8h7.9c.9 0 1.6.6 1.8 1.5 1.2 8.2 4.8 12.3 20.8 12.3 12.8 0 18.3-2.9 18.3-9.8 0-3.9-1.6-6.9-21.4-8.8-16.6-1.7-26.9-5.3-26.9-18.6 0-12.2 10.3-19.5 27.6-19.5 19.5 0 29 6.7 30.2 21.3 0 .5-.1 1-.5 1.4-.4.4-.9.6-1.4.6h-7.9c-.8 0-1.5-.6-1.7-1.4-1.9-8.3-6.4-11-18.7-11-13.8 0-15.4 4.8-15.4 8.4 0 4.4 1.9 5.7 20.8 8.1 18.7 2.4 27.5 5.9 27.5 19.2 0 13.2-11 21-30.5 21m65.4-64.8c0 7.3-5.9 13.2-13.2 13.2a13.2 13.2 0 01-13.2-13.2c0-7.4 6-13.4 13.2-13.4 7.3 0 13.2 6 13.2 13.4m-1.6 0c0-6.5-5.1-11.7-11.6-11.7-6.4 0-11.6 5.2-11.6 11.7 0 6.4 5.2 11.6 11.6 11.6 6.5 0 11.6-5.2 11.6-11.6m-7.6 7.8h-3.3c-.1-.2-3-9-3-9.1a2 2 0 00-1.9-1.6h-1.9v10.7h-3V142h5.2c3.6 0 5.4 2.5 5.4 5 0 3.8-3 4.5-3.7 4.5 2 .5 2.1 1.7 2.6 3.2l2.6 8.5zm-7-13h2.2c2 0 3-1 3-2.6 0-1.9-1.4-2.5-2.9-2.5h-2.3v5z"/>
  <path fill="url(#a)" d="M94.9 90.8a5.5 5.5 0 00-2.6-4.8L50 61.7a5.5 5.5 0 00-2.5-.7h-.6a5.4 5.4 0 00-2.5.7L2.6 86a5.5 5.5 0 00-2.7 4.8l.2 65c0 1 .5 1.9 1.4 2.4.9.5 2 .5 2.9 0l25-14.4a5.5 5.5 0 002.7-4.8v-30.3c0-2 1-3.9 2.7-4.8l10.6-6.1c.8-.5 1.7-.7 2.7-.7.9 0 1.9.2 2.7.7l10.6 6.1a5.5 5.5 0 012.6 4.8v30.3c0 2 1 3.8 2.7 4.8l25 14.4c.9.5 2 .5 2.9 0a3 3 0 001.3-2.4l.1-65z"/>
  <path fill="url(#b)" d="M130.9 0a3 3 0 00-1.4.4L111 14.6a5.5 5.5 0 00-2.7 4.8v29.1a5.5 5.5 0 002.7 4.8l18.4 10.7a5.5 5.5 0 005.3 0l18.4-10.7a5.5 5.5 0 002.7-4.8V19.4c0-2-1-3.8-2.7-4.8L132.3.4a3 3 0 00-1.4-.4z"/>
  <path fill="url(#c)" d="M160.6 79.4L143 69.6a1 1 0 00-1 0l-17.6 9.8c-.5.3-.5.9 0 1.2l17.5 9.8.5.2.5-.2 17.5-9.8c.4-.3.4-.9 0-1.2"/>
  <path fill="#6cc24a" d="M331.4 105.4c-.8 0-1.6-.2-2.3-.6l-7.1-4.2c-1-.6-.5-1 0-1 1.4-.6 1.7-.7 3.2-1.5a.5.5 0 01.5 0l5.5 3.3a.6.6 0 00.6 0l21.2-12.2a.6.6 0 00.3-.6V64a.6.6 0 00-.3-.5l-21.2-12.2a.6.6 0 00-.6 0L310 63.4a.6.6 0 00-.3.5v24.4c0 .2.1.5.3.6l5.8 3.3c3.2 1.6 5.1-.3 5.1-2.2V66.5c0-.4.3-.7.7-.7h2.7c.3 0 .6.3.6.7v24c0 4.3-2.3 6.7-6.4 6.7-1.2 0-2.2 0-4.9-1.3l-5.6-3.2a4.6 4.6 0 01-2.3-3.9V64c0-1.6.9-3.1 2.3-3.9l21.2-12.2c1.4-.8 3.1-.8 4.4 0l21.1 12.2c1.4.8 2.3 2.3 2.3 3.9v24.4c0 1.6-1 3.1-2.3 3.9l-21.1 12.2a4.5 4.5 0 01-2.3.6m5.8-16.8c-9.2 0-11.2-4.2-11.2-7.8 0-.4.3-.7.7-.7h2.7c.4 0 .6.2.7.5.4 2.9 1.7 4.3 7.2 4.3 4.5 0 6.3-1 6.3-3.4 0-1.3-.5-2.3-7.4-3.1-5.8-.6-9.3-1.8-9.3-6.4 0-4.3 3.6-6.8 9.6-6.8 6.7 0 10 2.4 10.5 7.4 0 .2 0 .3-.2.5-.1.2-.3.2-.4.2h-2.8c-.3 0-.6-.2-.7-.5-.7-3-2.4-3.9-6.4-3.9-4.8 0-5.3 1.7-5.3 2.9 0 1.5.7 2 7.2 2.8 6.5.8 9.5 2 9.5 6.7 0 4.6-3.8 7.3-10.7 7.3M362.1 66c0-1.2-1-2.2-2.1-2.2a2 2 0 00-2.1 2.2c0 1.2.9 2.2 2.1 2.2a2.2 2.2 0 002.1-2.2m-3.7 0c0-1 .8-1.7 1.6-1.7 1 0 1.7.8 1.7 1.7s-.8 1.8-1.7 1.8c-.9 0-1.6-.8-1.6-1.8m.9 1.2h.5l.5-1 .5.1c.3 0 .4-.2.4-.4 0-.3-.3-.4-.5-.4h-1v1.7zm.8-1h.3c.1 0 .3 0 .3.2 0 .2-.2.2-.3.2h-.3v-.4z"/>
  <path fill="#6cc24a" d="M257.6 94.4c.9 0 1.8-.2 2.5-.7l8-4.7c.8-.4 1.3-1.3 1.3-2.2V73.1c0-.9-.5-1.8-1.2-2.2l-8-4.7c-.8-.5-1.7-.7-2.6-.7s-1.8.2-2.5.7l-8 4.7c-.8.4-1.3 1.3-1.3 2.2v13.7c0 .9.5 1.8 1.3 2.2l8 4.7c.7.5 1.6.7 2.5.7m0-1.4a3 3 0 01-1.4-.4l-8-4.6a1.4 1.4 0 01-.7-1.2V73a1.4 1.4 0 01.7-1.2l8-4.6a3 3 0 012.8 0l7.9 4.6c.5.2.7.7.7 1.2v13.7c0 .5-.2 1-.7 1.2l-7.9 4.6a3 3 0 01-1.4.4"/>
  <path fill="#6cc24a" d="M257.6 76.8a4.3 4.3 0 110 8.6 4.3 4.3 0 010-8.6m0 7.2c1.6 0 2.9-1.2 2.9-2.9 0-1.6-1.3-2.9-2.9-2.9a2.9 2.9 0 00-2.8 2.9c0 1.7 1.2 2.9 2.8 2.9m17-7.2v1.4h-1.4v-1.4h-1.5v1.4h-1.4v1.5h1.4v1.4h1.5v-1.4h1.4v-1.5h-1.4v-1.4z"/>
  <path fill="#6cc24a" d="M438.6 78.3v-9.7c0-1-1.3-1.7-2.2-1l-21 12.2c-.3.1-.4.4-.4.7v24.3c0 .3.1.6.4.7l21 12.2c.9.5 2.2-.1 2.2-1v-9.8c0-.6-.6-1-1.1-.7l-14.2 8.2V91.6l14.2 8.2c.5.3 1.1-.1 1.1-.7"/>
  <path fill="#6cc24a" d="M401.4 67.7l-.2-1c-.9-4-3.4-8-9-8.5-4.2-.4-7.6 1.2-9.5 4.3v-3.2c0-.6-.5-1-1.1-.9l-7.7 1.3a1 1 0 00-.9 1V115c0 .7.8 1.2 1.5 1l8-2.5c.5-.2.9-.6.9-1.2V94c1.1 1.3 2.6 2.3 4.6 2.5 6.8.6 12.1-4 13.3-11.2 0 0 1-17.6 1-17.6zm-9.8 17.2c-.6 4.8-4 6.2-7.2 5.9-3.6-.3-5.9-3.2-5.9-6.8 0-2.9 1.7-6.3 6-6.3 5.3 0 7.7 3.8 7.1 7.2z"/>
</svg>
